<?xml version="1.0" encoding="UTF-8" standalone="no"?>
<!DOCTYPE svg PUBLIC "-//W3C//DTD SVG 1.1//EN"
 "http://www.w3.org/Graphics/SVG/1.1/DTD/svg11.dtd">
<!-- Generated by graphviz version 2.50.0 (0)
 -->
<!-- Pages: 1 -->
<svg width="226pt" height="433pt"
 viewBox="0.00 0.00 226.41 432.86" xmlns="http://www.w3.org/2000/svg" xmlns:xlink="http://www.w3.org/1999/xlink">
<g id="graph0" class="graph" transform="scale(1 1) rotate(0) translate(4 428.86)">
<polygon fill="white" stroke="transparent" points="-4,4 -4,-428.86 222.41,-428.86 222.41,4 -4,4"/>
<g id="clust1" class="cluster">
<title>cluster48</title>
<path fill="none" stroke="black" d="M73.69,-8C73.69,-8 161.69,-8 161.69,-8 167.69,-8 173.69,-14 173.69,-20 173.69,-20 173.69,-309.91 173.69,-309.91 173.69,-315.91 167.69,-321.91 161.69,-321.91 161.69,-321.91 73.69,-321.91 73.69,-321.91 67.69,-321.91 61.69,-315.91 61.69,-309.91 61.69,-309.91 61.69,-20 61.69,-20 61.69,-14 67.69,-8 73.69,-8"/>
<text text-anchor="middle" x="158.69" y="-15.8" font-family="Times,serif" font-size="14.00">48</text>
</g>
<!-- σ -->
<g id="node1" class="node">
<title>σ</title>
<ellipse fill="none" stroke="black" cx="58.69" cy="-387.38" rx="58.88" ry="37.45"/>
<text text-anchor="middle" x="58.69" y="-398.68" font-family="Times,serif" font-size="14.00">σ</text>
<text text-anchor="middle" x="58.69" y="-383.68" font-family="Times,serif" font-size="14.00">~</text>
<text text-anchor="middle" x="58.69" y="-368.68" font-family="Times,serif" font-size="14.00">HalfNormal</text>
</g>
<!-- α_tanque -->
<g id="node5" class="node">
<title>α_tanque</title>
<ellipse fill="none" stroke="black" cx="117.69" cy="-276.43" rx="47.25" ry="37.45"/>
<text text-anchor="middle" x="117.69" y="-287.73" font-family="Times,serif" font-size="14.00">α_tanque</text>
<text text-anchor="middle" x="117.69" y="-272.73" font-family="Times,serif" font-size="14.00">~</text>
<text text-anchor="middle" x="117.69" y="-257.73" font-family="Times,serif" font-size="14.00">Normal</text>
</g>
<!-- σ&#45;&gt;α_tanque -->
<g id="edge1" class="edge">
<title>σ&#45;&gt;α_tanque</title>
<path fill="none" stroke="black" d="M77.52,-351.61C82.95,-341.59 88.93,-330.54 94.58,-320.11"/>
<polygon fill="black" stroke="black" points="97.76,-321.59 99.44,-311.13 91.6,-318.26 97.76,-321.59"/>
</g>
<!-- μ -->
<g id="node2" class="node">
<title>μ</title>
<ellipse fill="none" stroke="black" cx="176.69" cy="-387.38" rx="41.94" ry="37.45"/>
<text text-anchor="middle" x="176.69" y="-398.68" font-family="Times,serif" font-size="14.00">μ</text>
<text text-anchor="middle" x="176.69" y="-383.68" font-family="Times,serif" font-size="14.00">~</text>
<text text-anchor="middle" x="176.69" y="-368.68" font-family="Times,serif" font-size="14.00">Normal</text>
</g>
<!-- μ&#45;&gt;α_tanque -->
<g id="edge2" class="edge">
<title>μ&#45;&gt;α_tanque</title>
<path fill="none" stroke="black" d="M158.83,-353.4C153.16,-342.93 146.8,-331.19 140.82,-320.14"/>
<polygon fill="black" stroke="black" points="143.74,-318.18 135.9,-311.06 137.58,-321.52 143.74,-318.18"/>
</g>
<!-- p -->
<g id="node3" class="node">
<title>p</title>
<polygon fill="none" stroke="black" points="163.19,-202.95 72.19,-202.95 72.19,-149.95 163.19,-149.95 163.19,-202.95"/>
<text text-anchor="middle" x="117.69" y="-187.75" font-family="Times,serif" font-size="14.00">p</text>
<text text-anchor="middle" x="117.69" y="-172.75" font-family="Times,serif" font-size="14.00">~</text>
<text text-anchor="middle" x="117.69" y="-157.75" font-family="Times,serif" font-size="14.00">Deterministic</text>
</g>
<!-- surv -->
<g id="node4" class="node">
<title>surv</title>
<ellipse fill="lightgrey" stroke="black" cx="117.69" cy="-76.48" rx="48.17" ry="37.45"/>
<text text-anchor="middle" x="117.69" y="-87.78" font-family="Times,serif" font-size="14.00">surv</text>
<text text-anchor="middle" x="117.69" y="-72.78" font-family="Times,serif" font-size="14.00">~</text>
<text text-anchor="middle" x="117.69" y="-57.78" font-family="Times,serif" font-size="14.00">Binomial</text>
</g>
<!-- p&#45;&gt;surv -->
<g id="edge4" class="edge">
<title>p&#45;&gt;surv</title>
<path fill="none" stroke="black" d="M117.69,-149.71C117.69,-141.89 117.69,-133.03 117.69,-124.27"/>
<polygon fill="black" stroke="black" points="121.19,-124.1 117.69,-114.1 114.19,-124.1 121.19,-124.1"/>
</g>
<!-- α_tanque&#45;&gt;p -->
<g id="edge3" class="edge">
<title>α_tanque&#45;&gt;p</title>
<path fill="none" stroke="black" d="M117.69,-238.95C117.69,-230.53 117.69,-221.59 117.69,-213.2"/>
<polygon fill="black" stroke="black" points="121.19,-212.96 117.69,-202.96 114.19,-212.96 121.19,-212.96"/>
</g>
</g>
</svg>
