<?xml version="1.0" encoding="UTF-8" standalone="no"?>
<!DOCTYPE svg PUBLIC "-//W3C//DTD SVG 1.1//EN"
 "http://www.w3.org/Graphics/SVG/1.1/DTD/svg11.dtd">
<!-- Generated by graphviz version 2.50.0 (0)
 -->
<!-- Pages: 1 -->
<svg width="279pt" height="344pt"
 viewBox="0.00 0.00 278.70 343.86" xmlns="http://www.w3.org/2000/svg" xmlns:xlink="http://www.w3.org/1999/xlink">
<g id="graph0" class="graph" transform="scale(1 1) rotate(0) translate(4 339.86)">
<polygon fill="white" stroke="transparent" points="-4,4 -4,-339.86 274.7,-339.86 274.7,4 -4,4"/>
<g id="clust1" class="cluster">
<title>cluster348</title>
<path fill="none" stroke="black" d="M49.72,-8C49.72,-8 133.72,-8 133.72,-8 139.72,-8 145.72,-14 145.72,-20 145.72,-20 145.72,-209.93 145.72,-209.93 145.72,-215.93 139.72,-221.93 133.72,-221.93 133.72,-221.93 49.72,-221.93 49.72,-221.93 43.72,-221.93 37.72,-215.93 37.72,-209.93 37.72,-209.93 37.72,-20 37.72,-20 37.72,-14 43.72,-8 49.72,-8"/>
<text text-anchor="middle" x="127.22" y="-15.8" font-family="Times,serif" font-size="14.00">348</text>
</g>
<!-- β -->
<g id="node1" class="node">
<title>β</title>
<ellipse fill="none" stroke="black" cx="41.72" cy="-298.38" rx="41.94" ry="37.45"/>
<text text-anchor="middle" x="41.72" y="-309.68" font-family="Times,serif" font-size="14.00">β</text>
<text text-anchor="middle" x="41.72" y="-294.68" font-family="Times,serif" font-size="14.00">~</text>
<text text-anchor="middle" x="41.72" y="-279.68" font-family="Times,serif" font-size="14.00">Normal</text>
</g>
<!-- μ -->
<g id="node5" class="node">
<title>μ</title>
<polygon fill="none" stroke="black" points="137.22,-213.93 46.22,-213.93 46.22,-160.93 137.22,-160.93 137.22,-213.93"/>
<text text-anchor="middle" x="91.72" y="-198.73" font-family="Times,serif" font-size="14.00">μ</text>
<text text-anchor="middle" x="91.72" y="-183.73" font-family="Times,serif" font-size="14.00">~</text>
<text text-anchor="middle" x="91.72" y="-168.73" font-family="Times,serif" font-size="14.00">Deterministic</text>
</g>
<!-- β&#45;&gt;μ -->
<g id="edge1" class="edge">
<title>β&#45;&gt;μ</title>
<path fill="none" stroke="black" d="M57.27,-263.51C63.11,-250.76 69.77,-236.26 75.66,-223.41"/>
<polygon fill="black" stroke="black" points="79.01,-224.52 80,-213.97 72.64,-221.6 79.01,-224.52"/>
</g>
<!-- α -->
<g id="node2" class="node">
<title>α</title>
<ellipse fill="none" stroke="black" cx="142.72" cy="-298.38" rx="41.94" ry="37.45"/>
<text text-anchor="middle" x="142.72" y="-309.68" font-family="Times,serif" font-size="14.00">α</text>
<text text-anchor="middle" x="142.72" y="-294.68" font-family="Times,serif" font-size="14.00">~</text>
<text text-anchor="middle" x="142.72" y="-279.68" font-family="Times,serif" font-size="14.00">Normal</text>
</g>
<!-- α&#45;&gt;μ -->
<g id="edge2" class="edge">
<title>α&#45;&gt;μ</title>
<path fill="none" stroke="black" d="M126.86,-263.51C120.84,-250.64 113.97,-235.97 107.92,-223.04"/>
<polygon fill="black" stroke="black" points="111.09,-221.55 103.68,-213.97 104.75,-224.52 111.09,-221.55"/>
</g>
<!-- σ -->
<g id="node3" class="node">
<title>σ</title>
<ellipse fill="none" stroke="black" cx="212.72" cy="-187.43" rx="57.97" ry="37.45"/>
<text text-anchor="middle" x="212.72" y="-198.73" font-family="Times,serif" font-size="14.00">σ</text>
<text text-anchor="middle" x="212.72" y="-183.73" font-family="Times,serif" font-size="14.00">~</text>
<text text-anchor="middle" x="212.72" y="-168.73" font-family="Times,serif" font-size="14.00">HalfCauchy</text>
</g>
<!-- y_pred -->
<g id="node4" class="node">
<title>y_pred</title>
<ellipse fill="lightgrey" stroke="black" cx="93.72" cy="-76.48" rx="41.94" ry="37.45"/>
<text text-anchor="middle" x="93.72" y="-87.78" font-family="Times,serif" font-size="14.00">y_pred</text>
<text text-anchor="middle" x="93.72" y="-72.78" font-family="Times,serif" font-size="14.00">~</text>
<text text-anchor="middle" x="93.72" y="-57.78" font-family="Times,serif" font-size="14.00">Normal</text>
</g>
<!-- σ&#45;&gt;y_pred -->
<g id="edge4" class="edge">
<title>σ&#45;&gt;y_pred</title>
<path fill="none" stroke="black" d="M179.89,-156.37C164.4,-142.19 145.87,-125.22 129.97,-110.66"/>
<polygon fill="black" stroke="black" points="132.14,-107.9 122.4,-103.73 127.41,-113.07 132.14,-107.9"/>
</g>
<!-- μ&#45;&gt;y_pred -->
<g id="edge3" class="edge">
<title>μ&#45;&gt;y_pred</title>
<path fill="none" stroke="black" d="M92.19,-160.89C92.39,-149.98 92.63,-136.89 92.86,-124.35"/>
<polygon fill="black" stroke="black" points="96.36,-124.06 93.05,-114 89.37,-123.94 96.36,-124.06"/>
</g>
</g>
</svg>
