<?xml version="1.0" encoding="UTF-8" standalone="no"?>
<!DOCTYPE svg PUBLIC "-//W3C//DTD SVG 1.1//EN"
 "http://www.w3.org/Graphics/SVG/1.1/DTD/svg11.dtd">
<!-- Generated by graphviz version 2.50.0 (0)
 -->
<!-- Pages: 1 -->
<svg width="279pt" height="344pt"
 viewBox="0.00 0.00 278.70 343.86" xmlns="http://www.w3.org/2000/svg" xmlns:xlink="http://www.w3.org/1999/xlink">
<g id="graph0" class="graph" transform="scale(1 1) rotate(0) translate(4 339.86)">
<polygon fill="white" stroke="transparent" points="-4,4 -4,-339.86 274.7,-339.86 274.7,4 -4,4"/>
<g id="clust1" class="cluster">
<title>cluster348</title>
<path fill="none" stroke="black" d="M136.98,-8C136.98,-8 220.98,-8 220.98,-8 226.98,-8 232.98,-14 232.98,-20 232.98,-20 232.98,-209.93 232.98,-209.93 232.98,-215.93 226.98,-221.93 220.98,-221.93 220.98,-221.93 136.98,-221.93 136.98,-221.93 130.98,-221.93 124.98,-215.93 124.98,-209.93 124.98,-209.93 124.98,-20 124.98,-20 124.98,-14 130.98,-8 136.98,-8"/>
<text text-anchor="middle" x="214.48" y="-15.8" font-family="Times,serif" font-size="14.00">348</text>
</g>
<!-- σ -->
<g id="node1" class="node">
<title>σ</title>
<ellipse fill="none" stroke="black" cx="57.98" cy="-187.43" rx="57.97" ry="37.45"/>
<text text-anchor="middle" x="57.98" y="-198.73" font-family="Times,serif" font-size="14.00">σ</text>
<text text-anchor="middle" x="57.98" y="-183.73" font-family="Times,serif" font-size="14.00">~</text>
<text text-anchor="middle" x="57.98" y="-168.73" font-family="Times,serif" font-size="14.00">HalfCauchy</text>
</g>
<!-- y_pred -->
<g id="node4" class="node">
<title>y_pred</title>
<ellipse fill="lightgrey" stroke="black" cx="176.98" cy="-76.48" rx="41.94" ry="37.45"/>
<text text-anchor="middle" x="176.98" y="-87.78" font-family="Times,serif" font-size="14.00">y_pred</text>
<text text-anchor="middle" x="176.98" y="-72.78" font-family="Times,serif" font-size="14.00">~</text>
<text text-anchor="middle" x="176.98" y="-57.78" font-family="Times,serif" font-size="14.00">Normal</text>
</g>
<!-- σ&#45;&gt;y_pred -->
<g id="edge3" class="edge">
<title>σ&#45;&gt;y_pred</title>
<path fill="none" stroke="black" d="M90.82,-156.37C106.3,-142.19 124.83,-125.22 140.74,-110.66"/>
<polygon fill="black" stroke="black" points="143.29,-113.07 148.31,-103.73 138.57,-107.9 143.29,-113.07"/>
</g>
<!-- α -->
<g id="node2" class="node">
<title>α</title>
<ellipse fill="none" stroke="black" cx="127.98" cy="-298.38" rx="41.94" ry="37.45"/>
<text text-anchor="middle" x="127.98" y="-309.68" font-family="Times,serif" font-size="14.00">α</text>
<text text-anchor="middle" x="127.98" y="-294.68" font-family="Times,serif" font-size="14.00">~</text>
<text text-anchor="middle" x="127.98" y="-279.68" font-family="Times,serif" font-size="14.00">Normal</text>
</g>
<!-- μ -->
<g id="node5" class="node">
<title>μ</title>
<polygon fill="none" stroke="black" points="224.48,-213.93 133.48,-213.93 133.48,-160.93 224.48,-160.93 224.48,-213.93"/>
<text text-anchor="middle" x="178.98" y="-198.73" font-family="Times,serif" font-size="14.00">μ</text>
<text text-anchor="middle" x="178.98" y="-183.73" font-family="Times,serif" font-size="14.00">~</text>
<text text-anchor="middle" x="178.98" y="-168.73" font-family="Times,serif" font-size="14.00">Deterministic</text>
</g>
<!-- α&#45;&gt;μ -->
<g id="edge1" class="edge">
<title>α&#45;&gt;μ</title>
<path fill="none" stroke="black" d="M143.84,-263.51C149.86,-250.64 156.73,-235.97 162.78,-223.04"/>
<polygon fill="black" stroke="black" points="165.96,-224.52 167.03,-213.97 159.62,-221.55 165.96,-224.52"/>
</g>
<!-- β -->
<g id="node3" class="node">
<title>β</title>
<ellipse fill="none" stroke="black" cx="228.98" cy="-298.38" rx="41.94" ry="37.45"/>
<text text-anchor="middle" x="228.98" y="-309.68" font-family="Times,serif" font-size="14.00">β</text>
<text text-anchor="middle" x="228.98" y="-294.68" font-family="Times,serif" font-size="14.00">~</text>
<text text-anchor="middle" x="228.98" y="-279.68" font-family="Times,serif" font-size="14.00">Normal</text>
</g>
<!-- β&#45;&gt;μ -->
<g id="edge2" class="edge">
<title>β&#45;&gt;μ</title>
<path fill="none" stroke="black" d="M213.44,-263.51C207.59,-250.76 200.93,-236.26 195.04,-223.41"/>
<polygon fill="black" stroke="black" points="198.06,-221.6 190.71,-213.97 191.7,-224.52 198.06,-221.6"/>
</g>
<!-- μ&#45;&gt;y_pred -->
<g id="edge4" class="edge">
<title>μ&#45;&gt;y_pred</title>
<path fill="none" stroke="black" d="M178.51,-160.89C178.31,-149.98 178.07,-136.89 177.84,-124.35"/>
<polygon fill="black" stroke="black" points="181.34,-123.94 177.65,-114 174.34,-124.06 181.34,-123.94"/>
</g>
</g>
</svg>
