<?xml version="1.0" encoding="UTF-8" standalone="no"?>
<!DOCTYPE svg PUBLIC "-//W3C//DTD SVG 1.1//EN"
 "http://www.w3.org/Graphics/SVG/1.1/DTD/svg11.dtd">
<!-- Generated by graphviz version 2.50.0 (0)
 -->
<!-- Pages: 1 -->
<svg width="245pt" height="466pt"
 viewBox="0.00 0.00 245.13 465.81" xmlns="http://www.w3.org/2000/svg" xmlns:xlink="http://www.w3.org/1999/xlink">
<g id="graph0" class="graph" transform="scale(1 1) rotate(0) translate(4 461.81)">
<polygon fill="white" stroke="transparent" points="-4,4 -4,-461.81 241.13,-461.81 241.13,4 -4,4"/>
<g id="clust1" class="cluster">
<title>clusterpos (4)</title>
<path fill="none" stroke="black" d="M63.13,-240.91C63.13,-240.91 217.13,-240.91 217.13,-240.91 223.13,-240.91 229.13,-246.91 229.13,-252.91 229.13,-252.91 229.13,-342.86 229.13,-342.86 229.13,-348.86 223.13,-354.86 217.13,-354.86 217.13,-354.86 63.13,-354.86 63.13,-354.86 57.13,-354.86 51.13,-348.86 51.13,-342.86 51.13,-342.86 51.13,-252.91 51.13,-252.91 51.13,-246.91 57.13,-240.91 63.13,-240.91"/>
<text text-anchor="middle" x="201.63" y="-248.71" font-family="Times,serif" font-size="14.00">pos (4)</text>
</g>
<g id="clust2" class="cluster">
<title>cluster2682</title>
<path fill="none" stroke="black" d="M91.13,-8C91.13,-8 179.13,-8 179.13,-8 185.13,-8 191.13,-14 191.13,-20 191.13,-20 191.13,-220.91 191.13,-220.91 191.13,-226.91 185.13,-232.91 179.13,-232.91 179.13,-232.91 91.13,-232.91 91.13,-232.91 85.13,-232.91 79.13,-226.91 79.13,-220.91 79.13,-220.91 79.13,-20 79.13,-20 79.13,-14 85.13,-8 91.13,-8"/>
<text text-anchor="middle" x="169.13" y="-15.8" font-family="Times,serif" font-size="14.00">2682</text>
</g>
<!-- ν -->
<g id="node1" class="node">
<title>ν</title>
<ellipse fill="none" stroke="black" cx="43.13" cy="-420.34" rx="43.27" ry="37.45"/>
<text text-anchor="middle" x="43.13" y="-431.64" font-family="Times,serif" font-size="14.00">ν</text>
<text text-anchor="middle" x="43.13" y="-416.64" font-family="Times,serif" font-size="14.00">~</text>
<text text-anchor="middle" x="43.13" y="-401.64" font-family="Times,serif" font-size="14.00">Gamma</text>
</g>
<!-- μ_p -->
<g id="node4" class="node">
<title>μ_p</title>
<ellipse fill="none" stroke="black" cx="88.13" cy="-309.38" rx="28.98" ry="37.45"/>
<text text-anchor="middle" x="88.13" y="-320.68" font-family="Times,serif" font-size="14.00">μ_p</text>
<text text-anchor="middle" x="88.13" y="-305.68" font-family="Times,serif" font-size="14.00">~</text>
<text text-anchor="middle" x="88.13" y="-290.68" font-family="Times,serif" font-size="14.00">Beta</text>
</g>
<!-- ν&#45;&gt;μ_p -->
<g id="edge1" class="edge">
<title>ν&#45;&gt;μ_p</title>
<path fill="none" stroke="black" d="M57.37,-384.86C61.67,-374.45 66.44,-362.9 70.92,-352.07"/>
<polygon fill="black" stroke="black" points="74.17,-353.36 74.75,-342.78 67.7,-350.68 74.17,-353.36"/>
</g>
<!-- μ -->
<g id="node2" class="node">
<title>μ</title>
<ellipse fill="none" stroke="black" cx="133.13" cy="-420.34" rx="28.98" ry="37.45"/>
<text text-anchor="middle" x="133.13" y="-431.64" font-family="Times,serif" font-size="14.00">μ</text>
<text text-anchor="middle" x="133.13" y="-416.64" font-family="Times,serif" font-size="14.00">~</text>
<text text-anchor="middle" x="133.13" y="-401.64" font-family="Times,serif" font-size="14.00">Beta</text>
</g>
<!-- μ&#45;&gt;μ_p -->
<g id="edge2" class="edge">
<title>μ&#45;&gt;μ_p</title>
<path fill="none" stroke="black" d="M119.75,-386.94C115.26,-376.06 110.18,-363.77 105.43,-352.27"/>
<polygon fill="black" stroke="black" points="108.59,-350.75 101.54,-342.84 102.12,-353.42 108.59,-350.75"/>
</g>
<!-- ν_p -->
<g id="node3" class="node">
<title>ν_p</title>
<ellipse fill="none" stroke="black" cx="178.13" cy="-309.38" rx="43.27" ry="37.45"/>
<text text-anchor="middle" x="178.13" y="-320.68" font-family="Times,serif" font-size="14.00">ν_p</text>
<text text-anchor="middle" x="178.13" y="-305.68" font-family="Times,serif" font-size="14.00">~</text>
<text text-anchor="middle" x="178.13" y="-290.68" font-family="Times,serif" font-size="14.00">Gamma</text>
</g>
<!-- θ -->
<g id="node6" class="node">
<title>θ</title>
<ellipse fill="none" stroke="black" cx="135.13" cy="-187.43" rx="28.98" ry="37.45"/>
<text text-anchor="middle" x="135.13" y="-198.73" font-family="Times,serif" font-size="14.00">θ</text>
<text text-anchor="middle" x="135.13" y="-183.73" font-family="Times,serif" font-size="14.00">~</text>
<text text-anchor="middle" x="135.13" y="-168.73" font-family="Times,serif" font-size="14.00">Beta</text>
</g>
<!-- ν_p&#45;&gt;θ -->
<g id="edge3" class="edge">
<title>ν_p&#45;&gt;θ</title>
<path fill="none" stroke="black" d="M165.58,-273.37C160.87,-260.23 155.47,-245.16 150.53,-231.39"/>
<polygon fill="black" stroke="black" points="153.71,-229.87 147.04,-221.64 147.12,-232.23 153.71,-229.87"/>
</g>
<!-- μ_p&#45;&gt;θ -->
<g id="edge4" class="edge">
<title>μ_p&#45;&gt;θ</title>
<path fill="none" stroke="black" d="M100.98,-275.61C106.42,-261.72 112.82,-245.37 118.61,-230.6"/>
<polygon fill="black" stroke="black" points="121.92,-231.76 122.31,-221.17 115.4,-229.2 121.92,-231.76"/>
</g>
<!-- gs -->
<g id="node5" class="node">
<title>gs</title>
<ellipse fill="lightgrey" stroke="black" cx="135.13" cy="-76.48" rx="48.17" ry="37.45"/>
<text text-anchor="middle" x="135.13" y="-87.78" font-family="Times,serif" font-size="14.00">gs</text>
<text text-anchor="middle" x="135.13" y="-72.78" font-family="Times,serif" font-size="14.00">~</text>
<text text-anchor="middle" x="135.13" y="-57.78" font-family="Times,serif" font-size="14.00">Binomial</text>
</g>
<!-- θ&#45;&gt;gs -->
<g id="edge5" class="edge">
<title>θ&#45;&gt;gs</title>
<path fill="none" stroke="black" d="M135.13,-149.85C135.13,-141.67 135.13,-132.89 135.13,-124.37"/>
<polygon fill="black" stroke="black" points="138.63,-124.15 135.13,-114.15 131.63,-124.15 138.63,-124.15"/>
</g>
</g>
</svg>
