<?xml version="1.0" encoding="UTF-8" standalone="no"?>
<!DOCTYPE svg PUBLIC "-//W3C//DTD SVG 1.1//EN"
 "http://www.w3.org/Graphics/SVG/1.1/DTD/svg11.dtd">
<!-- Generated by graphviz version 2.50.0 (0)
 -->
<!-- Pages: 1 -->
<svg width="953pt" height="360pt"
 viewBox="0.00 0.00 952.65 359.88" xmlns="http://www.w3.org/2000/svg" xmlns:xlink="http://www.w3.org/1999/xlink">
<g id="graph0" class="graph" transform="scale(1 1) rotate(0) translate(4 355.88)">
<polygon fill="white" stroke="transparent" points="-4,4 -4,-355.88 948.65,-355.88 948.65,4 -4,4"/>
<g id="clust1" class="cluster">
<title>clusterg__factor_dim (3)</title>
<path fill="none" stroke="black" d="M459.96,-129.95C459.96,-129.95 669.96,-129.95 669.96,-129.95 675.96,-129.95 681.96,-135.95 681.96,-141.95 681.96,-141.95 681.96,-331.88 681.96,-331.88 681.96,-337.88 675.96,-343.88 669.96,-343.88 669.96,-343.88 459.96,-343.88 459.96,-343.88 453.96,-343.88 447.96,-337.88 447.96,-331.88 447.96,-331.88 447.96,-141.95 447.96,-141.95 447.96,-135.95 453.96,-129.95 459.96,-129.95"/>
<text text-anchor="middle" x="623.96" y="-137.75" font-family="Times,serif" font-size="14.00">g__factor_dim (3)</text>
</g>
<g id="clust2" class="cluster">
<title>clustery_obs (117)</title>
<path fill="none" stroke="black" d="M297.96,-8C297.96,-8 373.96,-8 373.96,-8 379.96,-8 385.96,-14 385.96,-20 385.96,-20 385.96,-109.95 385.96,-109.95 385.96,-115.95 379.96,-121.95 373.96,-121.95 373.96,-121.95 297.96,-121.95 297.96,-121.95 291.96,-121.95 285.96,-115.95 285.96,-109.95 285.96,-109.95 285.96,-20 285.96,-20 285.96,-14 291.96,-8 297.96,-8"/>
<text text-anchor="middle" x="344.96" y="-15.8" font-family="Times,serif" font-size="14.00">y_obs (117)</text>
</g>
<!-- Intercept -->
<g id="node1" class="node">
<title>Intercept</title>
<ellipse fill="none" stroke="black" cx="45.96" cy="-187.45" rx="45.92" ry="37.45"/>
<text text-anchor="middle" x="45.96" y="-198.75" font-family="Times,serif" font-size="14.00">Intercept</text>
<text text-anchor="middle" x="45.96" y="-183.75" font-family="Times,serif" font-size="14.00">~</text>
<text text-anchor="middle" x="45.96" y="-168.75" font-family="Times,serif" font-size="14.00">Normal</text>
</g>
<!-- y -->
<g id="node11" class="node">
<title>y</title>
<ellipse fill="lightgrey" stroke="black" cx="335.96" cy="-76.48" rx="41.94" ry="37.45"/>
<text text-anchor="middle" x="335.96" y="-87.78" font-family="Times,serif" font-size="14.00">y</text>
<text text-anchor="middle" x="335.96" y="-72.78" font-family="Times,serif" font-size="14.00">~</text>
<text text-anchor="middle" x="335.96" y="-57.78" font-family="Times,serif" font-size="14.00">Normal</text>
</g>
<!-- Intercept&#45;&gt;y -->
<g id="edge5" class="edge">
<title>Intercept&#45;&gt;y</title>
<path fill="none" stroke="black" d="M70.11,-155.34C78.89,-145.91 89.49,-136.36 100.96,-129.95 158.55,-97.8 234.42,-85.34 284.16,-80.52"/>
<polygon fill="black" stroke="black" points="284.71,-83.99 294.36,-79.61 284.08,-77.02 284.71,-83.99"/>
</g>
<!-- x|g_sigma -->
<g id="node2" class="node">
<title>x|g_sigma</title>
<ellipse fill="none" stroke="black" cx="750.96" cy="-298.41" rx="58.88" ry="37.45"/>
<text text-anchor="middle" x="750.96" y="-309.71" font-family="Times,serif" font-size="14.00">x|g_sigma</text>
<text text-anchor="middle" x="750.96" y="-294.71" font-family="Times,serif" font-size="14.00">~</text>
<text text-anchor="middle" x="750.96" y="-279.71" font-family="Times,serif" font-size="14.00">HalfNormal</text>
</g>
<!-- x|g -->
<g id="node8" class="node">
<title>x|g</title>
<polygon fill="none" stroke="black" points="551.46,-213.95 460.46,-213.95 460.46,-160.95 551.46,-160.95 551.46,-213.95"/>
<text text-anchor="middle" x="505.96" y="-198.75" font-family="Times,serif" font-size="14.00">x|g</text>
<text text-anchor="middle" x="505.96" y="-183.75" font-family="Times,serif" font-size="14.00">~</text>
<text text-anchor="middle" x="505.96" y="-168.75" font-family="Times,serif" font-size="14.00">Deterministic</text>
</g>
<!-- x|g_sigma&#45;&gt;x|g -->
<g id="edge3" class="edge">
<title>x|g_sigma&#45;&gt;x|g</title>
<path fill="none" stroke="black" d="M708.96,-272.15C701.44,-268.12 693.57,-264.2 685.96,-260.93 636.37,-239.6 619.48,-246.42 569.96,-224.93 565.64,-223.06 561.24,-220.97 556.87,-218.76"/>
<polygon fill="black" stroke="black" points="558.47,-215.65 547.99,-214.11 555.22,-221.85 558.47,-215.65"/>
</g>
<!-- x -->
<g id="node3" class="node">
<title>x</title>
<ellipse fill="none" stroke="black" cx="151.96" cy="-187.45" rx="41.94" ry="37.45"/>
<text text-anchor="middle" x="151.96" y="-198.75" font-family="Times,serif" font-size="14.00">x</text>
<text text-anchor="middle" x="151.96" y="-183.75" font-family="Times,serif" font-size="14.00">~</text>
<text text-anchor="middle" x="151.96" y="-168.75" font-family="Times,serif" font-size="14.00">Normal</text>
</g>
<!-- x&#45;&gt;y -->
<g id="edge8" class="edge">
<title>x&#45;&gt;y</title>
<path fill="none" stroke="black" d="M174.56,-155.68C182.45,-146.5 191.87,-137 201.96,-129.95 227.39,-112.19 259.66,-99.31 286.17,-90.76"/>
<polygon fill="black" stroke="black" points="287.51,-94.01 296.02,-87.7 285.43,-87.33 287.51,-94.01"/>
</g>
<!-- y_sigma -->
<g id="node4" class="node">
<title>y_sigma</title>
<ellipse fill="none" stroke="black" cx="274.96" cy="-187.45" rx="63.78" ry="37.45"/>
<text text-anchor="middle" x="274.96" y="-198.75" font-family="Times,serif" font-size="14.00">y_sigma</text>
<text text-anchor="middle" x="274.96" y="-183.75" font-family="Times,serif" font-size="14.00">~</text>
<text text-anchor="middle" x="274.96" y="-168.75" font-family="Times,serif" font-size="14.00">HalfStudentT</text>
</g>
<!-- y_sigma&#45;&gt;y -->
<g id="edge6" class="edge">
<title>y_sigma&#45;&gt;y</title>
<path fill="none" stroke="black" d="M294.43,-151.67C300.21,-141.36 306.59,-129.95 312.59,-119.24"/>
<polygon fill="black" stroke="black" points="315.68,-120.88 317.51,-110.44 309.57,-117.46 315.68,-120.88"/>
</g>
<!-- z -->
<g id="node5" class="node">
<title>z</title>
<ellipse fill="none" stroke="black" cx="397.96" cy="-187.45" rx="41.94" ry="37.45"/>
<text text-anchor="middle" x="397.96" y="-198.75" font-family="Times,serif" font-size="14.00">z</text>
<text text-anchor="middle" x="397.96" y="-183.75" font-family="Times,serif" font-size="14.00">~</text>
<text text-anchor="middle" x="397.96" y="-168.75" font-family="Times,serif" font-size="14.00">Normal</text>
</g>
<!-- z&#45;&gt;y -->
<g id="edge7" class="edge">
<title>z&#45;&gt;y</title>
<path fill="none" stroke="black" d="M379.36,-153.76C373.17,-142.87 366.19,-130.6 359.66,-119.13"/>
<polygon fill="black" stroke="black" points="362.54,-117.11 354.55,-110.15 356.45,-120.57 362.54,-117.11"/>
</g>
<!-- 1|g_sigma -->
<g id="node6" class="node">
<title>1|g_sigma</title>
<ellipse fill="none" stroke="black" cx="885.96" cy="-298.41" rx="58.88" ry="37.45"/>
<text text-anchor="middle" x="885.96" y="-309.71" font-family="Times,serif" font-size="14.00">1|g_sigma</text>
<text text-anchor="middle" x="885.96" y="-294.71" font-family="Times,serif" font-size="14.00">~</text>
<text text-anchor="middle" x="885.96" y="-279.71" font-family="Times,serif" font-size="14.00">HalfNormal</text>
</g>
<!-- 1|g -->
<g id="node10" class="node">
<title>1|g</title>
<polygon fill="none" stroke="black" points="669.46,-213.95 578.46,-213.95 578.46,-160.95 669.46,-160.95 669.46,-213.95"/>
<text text-anchor="middle" x="623.96" y="-198.75" font-family="Times,serif" font-size="14.00">1|g</text>
<text text-anchor="middle" x="623.96" y="-183.75" font-family="Times,serif" font-size="14.00">~</text>
<text text-anchor="middle" x="623.96" y="-168.75" font-family="Times,serif" font-size="14.00">Deterministic</text>
</g>
<!-- 1|g_sigma&#45;&gt;1|g -->
<g id="edge2" class="edge">
<title>1|g_sigma&#45;&gt;1|g</title>
<path fill="none" stroke="black" d="M842.81,-272.75C834.97,-268.6 826.8,-264.5 818.96,-260.93 772.9,-239.96 718.84,-220.23 679.34,-206.67"/>
<polygon fill="black" stroke="black" points="680.22,-203.27 669.62,-203.36 677.96,-209.9 680.22,-203.27"/>
</g>
<!-- 1|g_offset -->
<g id="node7" class="node">
<title>1|g_offset</title>
<ellipse fill="none" stroke="black" cx="623.96" cy="-298.41" rx="50.41" ry="37.45"/>
<text text-anchor="middle" x="623.96" y="-309.71" font-family="Times,serif" font-size="14.00">1|g_offset</text>
<text text-anchor="middle" x="623.96" y="-294.71" font-family="Times,serif" font-size="14.00">~</text>
<text text-anchor="middle" x="623.96" y="-279.71" font-family="Times,serif" font-size="14.00">Normal</text>
</g>
<!-- 1|g_offset&#45;&gt;1|g -->
<g id="edge1" class="edge">
<title>1|g_offset&#45;&gt;1|g</title>
<path fill="none" stroke="black" d="M623.96,-260.82C623.96,-249.09 623.96,-236.1 623.96,-224.41"/>
<polygon fill="black" stroke="black" points="627.46,-224.11 623.96,-214.11 620.46,-224.11 627.46,-224.11"/>
</g>
<!-- x|g&#45;&gt;y -->
<g id="edge9" class="edge">
<title>x|g&#45;&gt;y</title>
<path fill="none" stroke="black" d="M483.77,-160.83C473.84,-150.37 461.54,-138.71 448.96,-129.95 428.95,-116.03 404.64,-104.19 383.71,-95.3"/>
<polygon fill="black" stroke="black" points="384.94,-92.02 374.36,-91.43 382.26,-98.49 384.94,-92.02"/>
</g>
<!-- x|g_offset -->
<g id="node9" class="node">
<title>x|g_offset</title>
<ellipse fill="none" stroke="black" cx="505.96" cy="-298.41" rx="50.41" ry="37.45"/>
<text text-anchor="middle" x="505.96" y="-309.71" font-family="Times,serif" font-size="14.00">x|g_offset</text>
<text text-anchor="middle" x="505.96" y="-294.71" font-family="Times,serif" font-size="14.00">~</text>
<text text-anchor="middle" x="505.96" y="-279.71" font-family="Times,serif" font-size="14.00">Normal</text>
</g>
<!-- x|g_offset&#45;&gt;x|g -->
<g id="edge4" class="edge">
<title>x|g_offset&#45;&gt;x|g</title>
<path fill="none" stroke="black" d="M505.96,-260.82C505.96,-249.09 505.96,-236.1 505.96,-224.41"/>
<polygon fill="black" stroke="black" points="509.46,-224.11 505.96,-214.11 502.46,-224.11 509.46,-224.11"/>
</g>
<!-- 1|g&#45;&gt;y -->
<g id="edge10" class="edge">
<title>1|g&#45;&gt;y</title>
<path fill="none" stroke="black" d="M601.03,-160.73C589.93,-149.74 575.82,-137.69 560.96,-129.95 505.78,-101.22 434.86,-88.04 387.54,-82.11"/>
<polygon fill="black" stroke="black" points="387.86,-78.63 377.52,-80.92 387.03,-85.58 387.86,-78.63"/>
</g>
</g>
</svg>
