<?xml version="1.0" encoding="UTF-8" standalone="no"?>
<!DOCTYPE svg PUBLIC "-//W3C//DTD SVG 1.1//EN"
 "http://www.w3.org/Graphics/SVG/1.1/DTD/svg11.dtd">
<!-- Generated by graphviz version 2.50.0 (0)
 -->
<!-- Pages: 1 -->
<svg width="347pt" height="233pt"
 viewBox="0.00 0.00 346.60 232.91" xmlns="http://www.w3.org/2000/svg" xmlns:xlink="http://www.w3.org/1999/xlink">
<g id="graph0" class="graph" transform="scale(1 1) rotate(0) translate(4 228.91)">
<polygon fill="white" stroke="transparent" points="-4,4 -4,-228.91 342.6,-228.91 342.6,4 -4,4"/>
<g id="clust1" class="cluster">
<title>clustery_obs (117)</title>
<path fill="none" stroke="black" d="M148.64,-8C148.64,-8 224.64,-8 224.64,-8 230.64,-8 236.64,-14 236.64,-20 236.64,-20 236.64,-109.95 236.64,-109.95 236.64,-115.95 230.64,-121.95 224.64,-121.95 224.64,-121.95 148.64,-121.95 148.64,-121.95 142.64,-121.95 136.64,-115.95 136.64,-109.95 136.64,-109.95 136.64,-20 136.64,-20 136.64,-14 142.64,-8 148.64,-8"/>
<text text-anchor="middle" x="195.64" y="-15.8" font-family="Times,serif" font-size="14.00">y_obs (117)</text>
</g>
<!-- y_sigma -->
<g id="node1" class="node">
<title>y_sigma</title>
<ellipse fill="none" stroke="black" cx="63.64" cy="-187.43" rx="63.78" ry="37.45"/>
<text text-anchor="middle" x="63.64" y="-198.73" font-family="Times,serif" font-size="14.00">y_sigma</text>
<text text-anchor="middle" x="63.64" y="-183.73" font-family="Times,serif" font-size="14.00">~</text>
<text text-anchor="middle" x="63.64" y="-168.73" font-family="Times,serif" font-size="14.00">HalfStudentT</text>
</g>
<!-- y -->
<g id="node4" class="node">
<title>y</title>
<ellipse fill="lightgrey" stroke="black" cx="186.64" cy="-76.48" rx="41.94" ry="37.45"/>
<text text-anchor="middle" x="186.64" y="-87.78" font-family="Times,serif" font-size="14.00">y</text>
<text text-anchor="middle" x="186.64" y="-72.78" font-family="Times,serif" font-size="14.00">~</text>
<text text-anchor="middle" x="186.64" y="-57.78" font-family="Times,serif" font-size="14.00">Normal</text>
</g>
<!-- y_sigma&#45;&gt;y -->
<g id="edge1" class="edge">
<title>y_sigma&#45;&gt;y</title>
<path fill="none" stroke="black" d="M98.23,-155.79C114.23,-141.62 133.25,-124.77 149.55,-110.33"/>
<polygon fill="black" stroke="black" points="152.14,-112.71 157.3,-103.46 147.5,-107.47 152.14,-112.71"/>
</g>
<!-- x -->
<g id="node2" class="node">
<title>x</title>
<ellipse fill="none" stroke="black" cx="186.64" cy="-187.43" rx="41.94" ry="37.45"/>
<text text-anchor="middle" x="186.64" y="-198.73" font-family="Times,serif" font-size="14.00">x</text>
<text text-anchor="middle" x="186.64" y="-183.73" font-family="Times,serif" font-size="14.00">~</text>
<text text-anchor="middle" x="186.64" y="-168.73" font-family="Times,serif" font-size="14.00">Normal</text>
</g>
<!-- x&#45;&gt;y -->
<g id="edge2" class="edge">
<title>x&#45;&gt;y</title>
<path fill="none" stroke="black" d="M186.64,-149.85C186.64,-141.67 186.64,-132.89 186.64,-124.37"/>
<polygon fill="black" stroke="black" points="190.14,-124.15 186.64,-114.15 183.14,-124.15 190.14,-124.15"/>
</g>
<!-- Intercept -->
<g id="node3" class="node">
<title>Intercept</title>
<ellipse fill="none" stroke="black" cx="292.64" cy="-187.43" rx="45.92" ry="37.45"/>
<text text-anchor="middle" x="292.64" y="-198.73" font-family="Times,serif" font-size="14.00">Intercept</text>
<text text-anchor="middle" x="292.64" y="-183.73" font-family="Times,serif" font-size="14.00">~</text>
<text text-anchor="middle" x="292.64" y="-168.73" font-family="Times,serif" font-size="14.00">Normal</text>
</g>
<!-- Intercept&#45;&gt;y -->
<g id="edge3" class="edge">
<title>Intercept&#45;&gt;y</title>
<path fill="none" stroke="black" d="M264.51,-157.52C251.14,-143.78 235.04,-127.22 220.96,-112.75"/>
<polygon fill="black" stroke="black" points="223.28,-110.12 213.8,-105.39 218.26,-115 223.28,-110.12"/>
</g>
</g>
</svg>
