<?xml version="1.0" encoding="UTF-8" standalone="no"?>
<!DOCTYPE svg PUBLIC "-//W3C//DTD SVG 1.1//EN"
 "http://www.w3.org/Graphics/SVG/1.1/DTD/svg11.dtd">
<!-- Generated by graphviz version 2.50.0 (0)
 -->
<!-- Pages: 1 -->
<svg width="404pt" height="233pt"
 viewBox="0.00 0.00 403.62 232.91" xmlns="http://www.w3.org/2000/svg" xmlns:xlink="http://www.w3.org/1999/xlink">
<g id="graph0" class="graph" transform="scale(1 1) rotate(0) translate(4 228.91)">
<polygon fill="white" stroke="transparent" points="-4,4 -4,-228.91 399.62,-228.91 399.62,4 -4,4"/>
<g id="clust1" class="cluster">
<title>clusteralquiladas_obs (348)</title>
<path fill="none" stroke="black" d="M167.66,-8C167.66,-8 287.66,-8 287.66,-8 293.66,-8 299.66,-14 299.66,-20 299.66,-20 299.66,-109.95 299.66,-109.95 299.66,-115.95 293.66,-121.95 287.66,-121.95 287.66,-121.95 167.66,-121.95 167.66,-121.95 161.66,-121.95 155.66,-115.95 155.66,-109.95 155.66,-109.95 155.66,-20 155.66,-20 155.66,-14 161.66,-8 167.66,-8"/>
<text text-anchor="middle" x="234.66" y="-15.8" font-family="Times,serif" font-size="14.00">alquiladas_obs (348)</text>
</g>
<!-- alquiladas_alpha -->
<g id="node1" class="node">
<title>alquiladas_alpha</title>
<ellipse fill="none" stroke="black" cx="75.66" cy="-187.43" rx="75.82" ry="37.45"/>
<text text-anchor="middle" x="75.66" y="-198.73" font-family="Times,serif" font-size="14.00">alquiladas_alpha</text>
<text text-anchor="middle" x="75.66" y="-183.73" font-family="Times,serif" font-size="14.00">~</text>
<text text-anchor="middle" x="75.66" y="-168.73" font-family="Times,serif" font-size="14.00">HalfCauchy</text>
</g>
<!-- alquiladas -->
<g id="node4" class="node">
<title>alquiladas</title>
<ellipse fill="lightgrey" stroke="black" cx="227.66" cy="-76.48" rx="63.78" ry="37.45"/>
<text text-anchor="middle" x="227.66" y="-87.78" font-family="Times,serif" font-size="14.00">alquiladas</text>
<text text-anchor="middle" x="227.66" y="-72.78" font-family="Times,serif" font-size="14.00">~</text>
<text text-anchor="middle" x="227.66" y="-57.78" font-family="Times,serif" font-size="14.00">NegBinomial</text>
</g>
<!-- alquiladas_alpha&#45;&gt;alquiladas -->
<g id="edge1" class="edge">
<title>alquiladas_alpha&#45;&gt;alquiladas</title>
<path fill="none" stroke="black" d="M118,-156.08C137.14,-142.36 159.85,-126.08 179.62,-111.91"/>
<polygon fill="black" stroke="black" points="181.81,-114.65 187.9,-105.98 177.73,-108.96 181.81,-114.65"/>
</g>
<!-- temperatura -->
<g id="node2" class="node">
<title>temperatura</title>
<ellipse fill="none" stroke="black" cx="227.66" cy="-187.43" rx="57.97" ry="37.45"/>
<text text-anchor="middle" x="227.66" y="-198.73" font-family="Times,serif" font-size="14.00">temperatura</text>
<text text-anchor="middle" x="227.66" y="-183.73" font-family="Times,serif" font-size="14.00">~</text>
<text text-anchor="middle" x="227.66" y="-168.73" font-family="Times,serif" font-size="14.00">Normal</text>
</g>
<!-- temperatura&#45;&gt;alquiladas -->
<g id="edge2" class="edge">
<title>temperatura&#45;&gt;alquiladas</title>
<path fill="none" stroke="black" d="M227.66,-149.85C227.66,-141.67 227.66,-132.89 227.66,-124.37"/>
<polygon fill="black" stroke="black" points="231.16,-124.15 227.66,-114.15 224.16,-124.15 231.16,-124.15"/>
</g>
<!-- Intercept -->
<g id="node3" class="node">
<title>Intercept</title>
<ellipse fill="none" stroke="black" cx="349.66" cy="-187.43" rx="45.92" ry="37.45"/>
<text text-anchor="middle" x="349.66" y="-198.73" font-family="Times,serif" font-size="14.00">Intercept</text>
<text text-anchor="middle" x="349.66" y="-183.73" font-family="Times,serif" font-size="14.00">~</text>
<text text-anchor="middle" x="349.66" y="-168.73" font-family="Times,serif" font-size="14.00">Normal</text>
</g>
<!-- Intercept&#45;&gt;alquiladas -->
<g id="edge3" class="edge">
<title>Intercept&#45;&gt;alquiladas</title>
<path fill="none" stroke="black" d="M319.19,-159.22C304.27,-145.89 286.07,-129.64 269.83,-115.14"/>
<polygon fill="black" stroke="black" points="271.84,-112.24 262.05,-108.19 267.17,-117.46 271.84,-112.24"/>
</g>
</g>
</svg>
