<?xml version="1.0" encoding="UTF-8" standalone="no"?>
<!DOCTYPE svg PUBLIC "-//W3C//DTD SVG 1.1//EN"
 "http://www.w3.org/Graphics/SVG/1.1/DTD/svg11.dtd">
<!-- Generated by graphviz version 2.50.0 (0)
 -->
<!-- Pages: 1 -->
<svg width="404pt" height="233pt"
 viewBox="0.00 0.00 403.94 232.91" xmlns="http://www.w3.org/2000/svg" xmlns:xlink="http://www.w3.org/1999/xlink">
<g id="graph0" class="graph" transform="scale(1 1) rotate(0) translate(4 228.91)">
<polygon fill="white" stroke="transparent" points="-4,4 -4,-228.91 399.94,-228.91 399.94,4 -4,4"/>
<g id="clust1" class="cluster">
<title>clusteralquiladas_obs (348)</title>
<path fill="none" stroke="black" d="M125.96,-8C125.96,-8 245.96,-8 245.96,-8 251.96,-8 257.96,-14 257.96,-20 257.96,-20 257.96,-109.95 257.96,-109.95 257.96,-115.95 251.96,-121.95 245.96,-121.95 245.96,-121.95 125.96,-121.95 125.96,-121.95 119.96,-121.95 113.96,-115.95 113.96,-109.95 113.96,-109.95 113.96,-20 113.96,-20 113.96,-14 119.96,-8 125.96,-8"/>
<text text-anchor="middle" x="192.96" y="-15.8" font-family="Times,serif" font-size="14.00">alquiladas_obs (348)</text>
</g>
<!-- Intercept -->
<g id="node1" class="node">
<title>Intercept</title>
<ellipse fill="none" stroke="black" cx="45.96" cy="-187.43" rx="45.92" ry="37.45"/>
<text text-anchor="middle" x="45.96" y="-198.73" font-family="Times,serif" font-size="14.00">Intercept</text>
<text text-anchor="middle" x="45.96" y="-183.73" font-family="Times,serif" font-size="14.00">~</text>
<text text-anchor="middle" x="45.96" y="-168.73" font-family="Times,serif" font-size="14.00">Normal</text>
</g>
<!-- alquiladas -->
<g id="node4" class="node">
<title>alquiladas</title>
<ellipse fill="lightgrey" stroke="black" cx="185.96" cy="-76.48" rx="63.78" ry="37.45"/>
<text text-anchor="middle" x="185.96" y="-87.78" font-family="Times,serif" font-size="14.00">alquiladas</text>
<text text-anchor="middle" x="185.96" y="-72.78" font-family="Times,serif" font-size="14.00">~</text>
<text text-anchor="middle" x="185.96" y="-57.78" font-family="Times,serif" font-size="14.00">NegBinomial</text>
</g>
<!-- Intercept&#45;&gt;alquiladas -->
<g id="edge3" class="edge">
<title>Intercept&#45;&gt;alquiladas</title>
<path fill="none" stroke="black" d="M78.79,-160.89C97.04,-146.68 120.05,-128.77 140.06,-113.2"/>
<polygon fill="black" stroke="black" points="142.4,-115.81 148.14,-106.91 138.1,-110.29 142.4,-115.81"/>
</g>
<!-- alquiladas_alpha -->
<g id="node2" class="node">
<title>alquiladas_alpha</title>
<ellipse fill="none" stroke="black" cx="185.96" cy="-187.43" rx="75.82" ry="37.45"/>
<text text-anchor="middle" x="185.96" y="-198.73" font-family="Times,serif" font-size="14.00">alquiladas_alpha</text>
<text text-anchor="middle" x="185.96" y="-183.73" font-family="Times,serif" font-size="14.00">~</text>
<text text-anchor="middle" x="185.96" y="-168.73" font-family="Times,serif" font-size="14.00">HalfCauchy</text>
</g>
<!-- alquiladas_alpha&#45;&gt;alquiladas -->
<g id="edge2" class="edge">
<title>alquiladas_alpha&#45;&gt;alquiladas</title>
<path fill="none" stroke="black" d="M185.96,-149.85C185.96,-141.67 185.96,-132.89 185.96,-124.37"/>
<polygon fill="black" stroke="black" points="189.46,-124.15 185.96,-114.15 182.46,-124.15 189.46,-124.15"/>
</g>
<!-- temperatura -->
<g id="node3" class="node">
<title>temperatura</title>
<ellipse fill="none" stroke="black" cx="337.96" cy="-187.43" rx="57.97" ry="37.45"/>
<text text-anchor="middle" x="337.96" y="-198.73" font-family="Times,serif" font-size="14.00">temperatura</text>
<text text-anchor="middle" x="337.96" y="-183.73" font-family="Times,serif" font-size="14.00">~</text>
<text text-anchor="middle" x="337.96" y="-168.73" font-family="Times,serif" font-size="14.00">Normal</text>
</g>
<!-- temperatura&#45;&gt;alquiladas -->
<g id="edge1" class="edge">
<title>temperatura&#45;&gt;alquiladas</title>
<path fill="none" stroke="black" d="M299.61,-158.94C279.65,-144.63 255.07,-127.01 233.87,-111.82"/>
<polygon fill="black" stroke="black" points="235.8,-108.89 225.63,-105.91 231.72,-114.58 235.8,-108.89"/>
</g>
</g>
</svg>
