<?xml version="1.0" encoding="UTF-8" standalone="no"?>
<!DOCTYPE svg PUBLIC "-//W3C//DTD SVG 1.1//EN"
 "http://www.w3.org/Graphics/SVG/1.1/DTD/svg11.dtd">
<!-- Generated by graphviz version 2.50.0 (0)
 -->
<!-- Pages: 1 -->
<svg width="347pt" height="233pt"
 viewBox="0.00 0.00 347.36 232.91" xmlns="http://www.w3.org/2000/svg" xmlns:xlink="http://www.w3.org/1999/xlink">
<g id="graph0" class="graph" transform="scale(1 1) rotate(0) translate(4 228.91)">
<polygon fill="white" stroke="transparent" points="-4,4 -4,-228.91 343.36,-228.91 343.36,4 -4,4"/>
<g id="clust1" class="cluster">
<title>clustery_obs (117)</title>
<path fill="none" stroke="black" d="M153.64,-8C153.64,-8 229.64,-8 229.64,-8 235.64,-8 241.64,-14 241.64,-20 241.64,-20 241.64,-109.95 241.64,-109.95 241.64,-115.95 235.64,-121.95 229.64,-121.95 229.64,-121.95 153.64,-121.95 153.64,-121.95 147.64,-121.95 141.64,-115.95 141.64,-109.95 141.64,-109.95 141.64,-20 141.64,-20 141.64,-14 147.64,-8 153.64,-8"/>
<text text-anchor="middle" x="200.64" y="-15.8" font-family="Times,serif" font-size="14.00">y_obs (117)</text>
</g>
<!-- y_sigma -->
<g id="node1" class="node">
<title>y_sigma</title>
<ellipse fill="none" stroke="black" cx="63.64" cy="-187.43" rx="63.78" ry="37.45"/>
<text text-anchor="middle" x="63.64" y="-198.73" font-family="Times,serif" font-size="14.00">y_sigma</text>
<text text-anchor="middle" x="63.64" y="-183.73" font-family="Times,serif" font-size="14.00">~</text>
<text text-anchor="middle" x="63.64" y="-168.73" font-family="Times,serif" font-size="14.00">HalfStudentT</text>
</g>
<!-- y -->
<g id="node4" class="node">
<title>y</title>
<ellipse fill="lightgrey" stroke="black" cx="191.64" cy="-76.48" rx="41.94" ry="37.45"/>
<text text-anchor="middle" x="191.64" y="-87.78" font-family="Times,serif" font-size="14.00">y</text>
<text text-anchor="middle" x="191.64" y="-72.78" font-family="Times,serif" font-size="14.00">~</text>
<text text-anchor="middle" x="191.64" y="-57.78" font-family="Times,serif" font-size="14.00">Normal</text>
</g>
<!-- y_sigma&#45;&gt;y -->
<g id="edge1" class="edge">
<title>y_sigma&#45;&gt;y</title>
<path fill="none" stroke="black" d="M99.29,-156.08C116.36,-141.56 136.79,-124.16 154.09,-109.44"/>
<polygon fill="black" stroke="black" points="156.45,-112.02 161.8,-102.88 151.91,-106.69 156.45,-112.02"/>
</g>
<!-- Intercept -->
<g id="node2" class="node">
<title>Intercept</title>
<ellipse fill="none" stroke="black" cx="191.64" cy="-187.43" rx="45.92" ry="37.45"/>
<text text-anchor="middle" x="191.64" y="-198.73" font-family="Times,serif" font-size="14.00">Intercept</text>
<text text-anchor="middle" x="191.64" y="-183.73" font-family="Times,serif" font-size="14.00">~</text>
<text text-anchor="middle" x="191.64" y="-168.73" font-family="Times,serif" font-size="14.00">Normal</text>
</g>
<!-- Intercept&#45;&gt;y -->
<g id="edge2" class="edge">
<title>Intercept&#45;&gt;y</title>
<path fill="none" stroke="black" d="M191.64,-149.85C191.64,-141.67 191.64,-132.89 191.64,-124.37"/>
<polygon fill="black" stroke="black" points="195.14,-124.15 191.64,-114.15 188.14,-124.15 195.14,-124.15"/>
</g>
<!-- x -->
<g id="node3" class="node">
<title>x</title>
<ellipse fill="none" stroke="black" cx="297.64" cy="-187.43" rx="41.94" ry="37.45"/>
<text text-anchor="middle" x="297.64" y="-198.73" font-family="Times,serif" font-size="14.00">x</text>
<text text-anchor="middle" x="297.64" y="-183.73" font-family="Times,serif" font-size="14.00">~</text>
<text text-anchor="middle" x="297.64" y="-168.73" font-family="Times,serif" font-size="14.00">Normal</text>
</g>
<!-- x&#45;&gt;y -->
<g id="edge3" class="edge">
<title>x&#45;&gt;y</title>
<path fill="none" stroke="black" d="M270.62,-158.65C257.04,-144.7 240.43,-127.63 225.96,-112.75"/>
<polygon fill="black" stroke="black" points="228.09,-109.93 218.61,-105.2 223.08,-114.81 228.09,-109.93"/>
</g>
</g>
</svg>
