<?xml version="1.0" encoding="UTF-8" standalone="no"?>
<!DOCTYPE svg PUBLIC "-//W3C//DTD SVG 1.1//EN"
 "http://www.w3.org/Graphics/SVG/1.1/DTD/svg11.dtd">
<!-- Generated by graphviz version 2.50.0 (0)
 -->
<!-- Pages: 1 -->
<svg width="817pt" height="360pt"
 viewBox="0.00 0.00 817.33 359.88" xmlns="http://www.w3.org/2000/svg" xmlns:xlink="http://www.w3.org/1999/xlink">
<g id="graph0" class="graph" transform="scale(1 1) rotate(0) translate(4 355.88)">
<polygon fill="white" stroke="transparent" points="-4,4 -4,-355.88 813.33,-355.88 813.33,4 -4,4"/>
<g id="clust1" class="cluster">
<title>clusterg__factor_dim (3)</title>
<path fill="none" stroke="black" d="M139.69,-129.95C139.69,-129.95 349.69,-129.95 349.69,-129.95 355.69,-129.95 361.69,-135.95 361.69,-141.95 361.69,-141.95 361.69,-331.88 361.69,-331.88 361.69,-337.88 355.69,-343.88 349.69,-343.88 349.69,-343.88 139.69,-343.88 139.69,-343.88 133.69,-343.88 127.69,-337.88 127.69,-331.88 127.69,-331.88 127.69,-141.95 127.69,-141.95 127.69,-135.95 133.69,-129.95 139.69,-129.95"/>
<text text-anchor="middle" x="303.69" y="-137.75" font-family="Times,serif" font-size="14.00">g__factor_dim (3)</text>
</g>
<g id="clust2" class="cluster">
<title>clustery_obs (117)</title>
<path fill="none" stroke="black" d="M430.69,-8C430.69,-8 506.69,-8 506.69,-8 512.69,-8 518.69,-14 518.69,-20 518.69,-20 518.69,-109.95 518.69,-109.95 518.69,-115.95 512.69,-121.95 506.69,-121.95 506.69,-121.95 430.69,-121.95 430.69,-121.95 424.69,-121.95 418.69,-115.95 418.69,-109.95 418.69,-109.95 418.69,-20 418.69,-20 418.69,-14 424.69,-8 430.69,-8"/>
<text text-anchor="middle" x="477.69" y="-15.8" font-family="Times,serif" font-size="14.00">y_obs (117)</text>
</g>
<!-- x|g_sigma -->
<g id="node1" class="node">
<title>x|g_sigma</title>
<ellipse fill="none" stroke="black" cx="58.69" cy="-298.41" rx="58.88" ry="37.45"/>
<text text-anchor="middle" x="58.69" y="-309.71" font-family="Times,serif" font-size="14.00">x|g_sigma</text>
<text text-anchor="middle" x="58.69" y="-294.71" font-family="Times,serif" font-size="14.00">~</text>
<text text-anchor="middle" x="58.69" y="-279.71" font-family="Times,serif" font-size="14.00">HalfNormal</text>
</g>
<!-- x|g -->
<g id="node8" class="node">
<title>x|g</title>
<polygon fill="none" stroke="black" points="231.19,-213.95 140.19,-213.95 140.19,-160.95 231.19,-160.95 231.19,-213.95"/>
<text text-anchor="middle" x="185.69" y="-198.75" font-family="Times,serif" font-size="14.00">x|g</text>
<text text-anchor="middle" x="185.69" y="-183.75" font-family="Times,serif" font-size="14.00">~</text>
<text text-anchor="middle" x="185.69" y="-168.75" font-family="Times,serif" font-size="14.00">Deterministic</text>
</g>
<!-- x|g_sigma&#45;&gt;x|g -->
<g id="edge4" class="edge">
<title>x|g_sigma&#45;&gt;x|g</title>
<path fill="none" stroke="black" d="M93.06,-267.92C110,-253.39 130.48,-235.82 147.87,-220.9"/>
<polygon fill="black" stroke="black" points="150.31,-223.42 155.62,-214.25 145.75,-218.11 150.31,-223.42"/>
</g>
<!-- Intercept -->
<g id="node2" class="node">
<title>Intercept</title>
<ellipse fill="none" stroke="black" cx="415.69" cy="-187.45" rx="45.92" ry="37.45"/>
<text text-anchor="middle" x="415.69" y="-198.75" font-family="Times,serif" font-size="14.00">Intercept</text>
<text text-anchor="middle" x="415.69" y="-183.75" font-family="Times,serif" font-size="14.00">~</text>
<text text-anchor="middle" x="415.69" y="-168.75" font-family="Times,serif" font-size="14.00">Normal</text>
</g>
<!-- y -->
<g id="node11" class="node">
<title>y</title>
<ellipse fill="lightgrey" stroke="black" cx="468.69" cy="-76.48" rx="41.94" ry="37.45"/>
<text text-anchor="middle" x="468.69" y="-87.78" font-family="Times,serif" font-size="14.00">y</text>
<text text-anchor="middle" x="468.69" y="-72.78" font-family="Times,serif" font-size="14.00">~</text>
<text text-anchor="middle" x="468.69" y="-57.78" font-family="Times,serif" font-size="14.00">Normal</text>
</g>
<!-- Intercept&#45;&gt;y -->
<g id="edge7" class="edge">
<title>Intercept&#45;&gt;y</title>
<path fill="none" stroke="black" d="M432.31,-152.27C437.24,-142.13 442.71,-130.9 447.87,-120.29"/>
<polygon fill="black" stroke="black" points="451.08,-121.69 452.31,-111.16 444.79,-118.63 451.08,-121.69"/>
</g>
<!-- x -->
<g id="node3" class="node">
<title>x</title>
<ellipse fill="none" stroke="black" cx="521.69" cy="-187.45" rx="41.94" ry="37.45"/>
<text text-anchor="middle" x="521.69" y="-198.75" font-family="Times,serif" font-size="14.00">x</text>
<text text-anchor="middle" x="521.69" y="-183.75" font-family="Times,serif" font-size="14.00">~</text>
<text text-anchor="middle" x="521.69" y="-168.75" font-family="Times,serif" font-size="14.00">Normal</text>
</g>
<!-- x&#45;&gt;y -->
<g id="edge8" class="edge">
<title>x&#45;&gt;y</title>
<path fill="none" stroke="black" d="M505.36,-152.87C500.37,-142.61 494.82,-131.19 489.57,-120.41"/>
<polygon fill="black" stroke="black" points="492.58,-118.6 485.06,-111.14 486.29,-121.66 492.58,-118.6"/>
</g>
<!-- z -->
<g id="node4" class="node">
<title>z</title>
<ellipse fill="none" stroke="black" cx="622.69" cy="-187.45" rx="41.94" ry="37.45"/>
<text text-anchor="middle" x="622.69" y="-198.75" font-family="Times,serif" font-size="14.00">z</text>
<text text-anchor="middle" x="622.69" y="-183.75" font-family="Times,serif" font-size="14.00">~</text>
<text text-anchor="middle" x="622.69" y="-168.75" font-family="Times,serif" font-size="14.00">Normal</text>
</g>
<!-- z&#45;&gt;y -->
<g id="edge9" class="edge">
<title>z&#45;&gt;y</title>
<path fill="none" stroke="black" d="M599.42,-155.95C591.57,-146.88 582.34,-137.39 572.69,-129.95 555.56,-116.75 534.6,-105.42 515.99,-96.7"/>
<polygon fill="black" stroke="black" points="517.34,-93.47 506.79,-92.51 514.44,-99.84 517.34,-93.47"/>
</g>
<!-- y_sigma -->
<g id="node5" class="node">
<title>y_sigma</title>
<ellipse fill="none" stroke="black" cx="745.69" cy="-187.45" rx="63.78" ry="37.45"/>
<text text-anchor="middle" x="745.69" y="-198.75" font-family="Times,serif" font-size="14.00">y_sigma</text>
<text text-anchor="middle" x="745.69" y="-183.75" font-family="Times,serif" font-size="14.00">~</text>
<text text-anchor="middle" x="745.69" y="-168.75" font-family="Times,serif" font-size="14.00">HalfStudentT</text>
</g>
<!-- y_sigma&#45;&gt;y -->
<g id="edge10" class="edge">
<title>y_sigma&#45;&gt;y</title>
<path fill="none" stroke="black" d="M712.14,-155.44C700.63,-146.13 687.23,-136.63 673.69,-129.95 624.42,-105.67 562.78,-91.85 520.02,-84.56"/>
<polygon fill="black" stroke="black" points="520.55,-81.1 510.11,-82.93 519.41,-88 520.55,-81.1"/>
</g>
<!-- 1|g_sigma -->
<g id="node6" class="node">
<title>1|g_sigma</title>
<ellipse fill="none" stroke="black" cx="430.69" cy="-298.41" rx="58.88" ry="37.45"/>
<text text-anchor="middle" x="430.69" y="-309.71" font-family="Times,serif" font-size="14.00">1|g_sigma</text>
<text text-anchor="middle" x="430.69" y="-294.71" font-family="Times,serif" font-size="14.00">~</text>
<text text-anchor="middle" x="430.69" y="-279.71" font-family="Times,serif" font-size="14.00">HalfNormal</text>
</g>
<!-- 1|g -->
<g id="node10" class="node">
<title>1|g</title>
<polygon fill="none" stroke="black" points="352.19,-213.95 261.19,-213.95 261.19,-160.95 352.19,-160.95 352.19,-213.95"/>
<text text-anchor="middle" x="306.69" y="-198.75" font-family="Times,serif" font-size="14.00">1|g</text>
<text text-anchor="middle" x="306.69" y="-183.75" font-family="Times,serif" font-size="14.00">~</text>
<text text-anchor="middle" x="306.69" y="-168.75" font-family="Times,serif" font-size="14.00">Deterministic</text>
</g>
<!-- 1|g_sigma&#45;&gt;1|g -->
<g id="edge1" class="edge">
<title>1|g_sigma&#45;&gt;1|g</title>
<path fill="none" stroke="black" d="M396.81,-267.63C380.27,-253.1 360.34,-235.59 343.43,-220.74"/>
<polygon fill="black" stroke="black" points="345.72,-218.09 335.9,-214.12 341.1,-223.35 345.72,-218.09"/>
</g>
<!-- x|g_offset -->
<g id="node7" class="node">
<title>x|g_offset</title>
<ellipse fill="none" stroke="black" cx="185.69" cy="-298.41" rx="50.41" ry="37.45"/>
<text text-anchor="middle" x="185.69" y="-309.71" font-family="Times,serif" font-size="14.00">x|g_offset</text>
<text text-anchor="middle" x="185.69" y="-294.71" font-family="Times,serif" font-size="14.00">~</text>
<text text-anchor="middle" x="185.69" y="-279.71" font-family="Times,serif" font-size="14.00">Normal</text>
</g>
<!-- x|g_offset&#45;&gt;x|g -->
<g id="edge3" class="edge">
<title>x|g_offset&#45;&gt;x|g</title>
<path fill="none" stroke="black" d="M185.69,-260.82C185.69,-249.09 185.69,-236.1 185.69,-224.41"/>
<polygon fill="black" stroke="black" points="189.19,-224.11 185.69,-214.11 182.19,-224.11 189.19,-224.11"/>
</g>
<!-- x|g&#45;&gt;y -->
<g id="edge6" class="edge">
<title>x|g&#45;&gt;y</title>
<path fill="none" stroke="black" d="M209.95,-160.81C221.62,-149.84 236.38,-137.78 251.69,-129.95 304.47,-102.97 371.63,-89.5 417.16,-83.02"/>
<polygon fill="black" stroke="black" points="417.66,-86.49 427.1,-81.67 416.72,-79.55 417.66,-86.49"/>
</g>
<!-- 1|g_offset -->
<g id="node9" class="node">
<title>1|g_offset</title>
<ellipse fill="none" stroke="black" cx="303.69" cy="-298.41" rx="50.41" ry="37.45"/>
<text text-anchor="middle" x="303.69" y="-309.71" font-family="Times,serif" font-size="14.00">1|g_offset</text>
<text text-anchor="middle" x="303.69" y="-294.71" font-family="Times,serif" font-size="14.00">~</text>
<text text-anchor="middle" x="303.69" y="-279.71" font-family="Times,serif" font-size="14.00">Normal</text>
</g>
<!-- 1|g_offset&#45;&gt;1|g -->
<g id="edge2" class="edge">
<title>1|g_offset&#45;&gt;1|g</title>
<path fill="none" stroke="black" d="M304.7,-260.82C305.02,-249.09 305.38,-236.1 305.7,-224.41"/>
<polygon fill="black" stroke="black" points="309.21,-224.2 305.98,-214.11 302.21,-224.01 309.21,-224.2"/>
</g>
<!-- 1|g&#45;&gt;y -->
<g id="edge5" class="edge">
<title>1|g&#45;&gt;y</title>
<path fill="none" stroke="black" d="M327.58,-160.87C336.97,-150.42 348.63,-138.75 360.69,-129.95 379.14,-116.49 401.59,-104.94 421.22,-96.13"/>
<polygon fill="black" stroke="black" points="422.84,-99.24 430.61,-92.03 420.04,-92.83 422.84,-99.24"/>
</g>
</g>
</svg>
